<mxfile host="app.diagrams.net" modified="2024-02-10T11:00:34.146Z" agent="Mozilla/5.0 (Windows NT 10.0; Win64; x64) AppleWebKit/537.36 (KHTML, like Gecko) Chrome/121.0.0.0 Safari/537.36" version="23.1.2" etag="LSnEVYv5n1fR1MoDFveM" type="github">
  <diagram name="Sayfa -1" id="VQKKQya93tAhQXvpIA6m">
    <mxGraphModel>
      <root>
        <mxCell id="0" />
        <mxCell id="1" parent="0" />
      </root>
    </mxGraphModel>
  </diagram>
</mxfile>
